<svg width="300" height="300" xmlns="http://www.w3.org/2000/svg">
  <rect width="300" height="300" rx="30" ry="30" fill="#4F46E5"/>

  <g transform="translate(150, 150)">
    <rect x="-90" y="-60" width="20" height="120" fill="#3B82F6"/>
    <rect x="-90" y="-10" width="60" height="20" fill="#3B82F6"/>

    <path d="M -40,-60
             L -40,60
             L 0,60
             C 30,60 30,30 0,30
             L -40,30
             Z" fill="#3B82F6"/>

    <path d="M 40,-60
             C 40,-60 60,-60 60,-40
             C 60,-20 40,-20 40,-20
             C 40,-20 20,-20 20,0
             C 20,20 40,20 40,20
             C 40,20 60,20 60,40
             C 60,60 40,60 40,60"
          stroke="#3B82F6" stroke-width="20" fill="none" stroke-linecap="round" />

    <line x1="-70" y1="-60" x2="-50" y2="-80" stroke="#3B82F6" stroke-width="4" />
    <line x1="-10" y1="-60" x2="10" y2="-80" stroke="#3B82F6" stroke-width="4" />
    <line x1="30" y1="-60" x2="50" y2="-80" stroke="#3B82F6" stroke-width="4" />
  </g>
</svg>
